HIERARCHY
ROOT Hips
{
     OFFSET 17.16230 100.52300 5.87854
     CHANNELS 6 Xposition Yposition Zposition Zrotation Xrotation Yrotation
     JOINT Spine
     {
          OFFSET -0.00000 11.89050 -0.00000
          CHANNELS 3 Zrotation Xrotation Yrotation
          JOINT Spine1
          {
               OFFSET -0.00000 25.65740 0.12766
               CHANNELS 3 Zrotation Xrotation Yrotation
               JOINT HEad
               {
                    OFFSET -0.00000 8.73416 0.01134
                    CHANNELS 3 Zrotation Xrotation Yrotation
                    End Site
                    {
                         OFFSET -0.29000 12.77420 2.51395
                    }
               }
               JOINT LeftShoulder1
               {
                    OFFSET 8.99000 -0.36225 -0.22000
                    CHANNELS 3 Zrotation Xrotation Yrotation
                    JOINT LeftArm
                    {
                         OFFSET 10.28270 -0.00338 0.32212
                         CHANNELS 3 Zrotation Xrotation Yrotation
                         JOINT LeftForeArm
                         {
                              OFFSET 32.76690 0.09914 -1.42434
                              CHANNELS 3 Zrotation Xrotation Yrotation
                              JOINT LeftHand
                              {
                                   OFFSET 27.56430 0.08536 1.02216
                                   CHANNELS 3 Zrotation Xrotation Yrotation
                                   End Site
                                   {
                                        OFFSET 16.74430 -0.60000 1.50291
                                   }
                              }
                         }
                    }
               }
               JOINT RightShoulder
               {
                    OFFSET -8.99000 -0.36225 -0.22000
                    CHANNELS 3 Zrotation Xrotation Yrotation
                    JOINT RightArm
                    {
                         OFFSET -10.28270 -0.00338 0.32212
                         CHANNELS 3 Zrotation Xrotation Yrotation
                         JOINT RightForeArm
                         {
                              OFFSET -32.89710 0.09914 -1.42434
                              CHANNELS 3 Zrotation Xrotation Yrotation
                              JOINT RightHand
                              {
                                   OFFSET -27.49210 0.08536 1.02216
                                   CHANNELS 3 Zrotation Xrotation Yrotation
                                   End Site
                                   {
                                        OFFSET -16.63120 -0.60000 1.50291
                                   }
                              }
                         }
                    }
               }
          }
     }
     JOINT LeftUpLeg
     {
          OFFSET 8.94580 -8.66707 0.10165
          CHANNELS 3 Zrotation Xrotation Yrotation
          JOINT LeftLeg
          {
               OFFSET -0.00000 -44.42270 1.37270
               CHANNELS 3 Zrotation Xrotation Yrotation
               JOINT LeftFoot
               {
                    OFFSET -0.25355 -42.09240 -1.46059
                    CHANNELS 3 Zrotation Xrotation Yrotation
                    JOINT LeftToes
                    {
                         OFFSET -0.04000 -4.41509 8.49910
                         CHANNELS 3 Zrotation Xrotation Yrotation
                         End Site
                         {
                              OFFSET 0.08000 -0.04745 9.77979
                         }
                    }
               }
          }
     }
     JOINT RightUpLeg
     {
          OFFSET -8.94580 -8.66707 0.10165
          CHANNELS 3 Zrotation Xrotation Yrotation
          JOINT RightLeg
          {
               OFFSET 0.00000 -44.42270 1.37270
               CHANNELS 3 Zrotation Xrotation Yrotation
               JOINT RightFoot
               {
                    OFFSET 0.25355 -42.09240 -1.46059
                    CHANNELS 3 Zrotation Xrotation Yrotation
                    JOINT RightToes
                    {
                         OFFSET 0.04000 -4.41509 8.49910
                         CHANNELS 3 Zrotation Xrotation Yrotation
                         End Site
                         {
                              OFFSET -0.08000 -0.13745 9.77979
                         }
                    }
               }
          }
     }
}
MOTION
Frames: 10
Frame Time: 0.01667
38.84200 90.08360 32.35600 -8.41349 9.01986 -103.20400 -0.08839 9.72828 -1.00444 3.00271 19.47030 -2.68024 11.06900 -11.08480 -6.29834 -0.00000 -0.00000 0.00000 -68.45610 -31.41630 -87.72730 -15.79220 25.65290 -77.03090 5.55594 9.67997 -0.87718 10.16540 0.78714 3.07598 51.31340 -23.71600 83.02830 12.08160 22.80470 83.76610 -5.55712 9.68432 0.87760 6.67466 -20.95710 3.08780 25.53890 55.78630 -30.25460 -5.07784 -16.01380 -0.29586 0.46848 -30.13800 -8.87489 -13.55370 -12.64390 0.33544 -13.08970 8.77866 24.74650 29.67500 1.78805 -2.60847 -2.82094 -5.32585 -2.38026 
39.80220 91.35760 35.58380 -6.78801 10.06790 -108.57600 0.27126 9.31079 -2.13497 3.09017 18.57920 -4.83229 11.75650 -9.81944 -0.13241 -0.00000 -0.00000 0.00000 -67.49290 -33.31080 -85.83930 -16.22290 27.12000 -78.10140 5.55594 9.67997 -0.87718 10.57740 0.81717 3.16502 52.29840 -25.50230 82.54860 12.19560 23.02790 84.36610 -5.55712 9.68432 0.87760 7.74107 -20.41190 5.43955 19.81080 53.21280 -20.31210 -2.11507 -10.84840 -0.00937 -0.02379 -35.92920 -10.31700 -12.61180 -14.68610 -2.99725 -10.17770 8.86403 17.81330 27.35740 4.60818 -3.06734 -2.57425 -4.44299 -1.18106 
40.66170 92.78290 38.86120 -5.28638 10.47280 -114.20100 0.86198 8.94114 -2.74942 2.83007 17.76470 -5.90011 11.69680 -8.61819 5.14732 -0.00000 -0.00000 0.00000 -67.71120 -35.06060 -84.01130 -16.74400 28.65160 -79.11040 5.55594 9.67997 -0.87718 11.01270 0.83618 3.16361 53.99920 -27.39640 82.32260 12.56260 23.84340 85.09630 -5.55712 9.68432 0.87760 8.14111 -19.71060 6.62019 14.12110 49.85680 -9.81046 -1.84529 -4.05356 0.06718 -1.11941 -41.70580 -14.09410 -11.61630 -17.27210 -7.04366 -8.60422 12.87020 14.20970 24.36430 2.90465 -2.37853 -0.14950 -0.49325 0.26545 
41.36690 94.24080 42.02710 -4.13804 10.26920 -120.30100 1.22546 8.59694 -2.71056 2.17420 17.07540 -5.65000 10.92600 -7.35133 9.29653 -0.00000 -0.00000 0.00000 -68.32360 -36.28330 -82.04830 -17.14390 29.23450 -80.12890 5.55594 9.67997 -0.87718 11.44190 0.84835 3.11666 56.94950 -29.44240 82.50210 13.54210 25.98480 85.99100 -5.55712 9.68432 0.87760 7.98614 -18.59390 7.06711 8.86068 45.81550 0.29044 -2.49217 2.04372 0.18308 -2.23869 -44.92900 -17.49790 -10.54310 -19.90850 -10.76170 -9.20636 19.55770 14.40720 22.12020 -1.49084 -1.33876 3.07353 4.29245 0.81093 
41.92720 95.61900 44.96550 -3.42854 9.68761 -126.94200 1.23627 8.29755 -2.06169 1.25738 16.51060 -4.20415 9.59223 -5.78545 12.35670 -0.00000 -0.00000 0.00000 -70.02960 -37.32660 -80.66520 -17.53620 29.60170 -80.76300 5.55594 9.67997 -0.87718 11.78450 0.86073 3.09887 61.12760 -31.47750 83.10460 15.28570 29.60800 86.89350 -5.55712 9.68432 0.87760 7.49822 -17.15910 7.24854 4.47009 41.48000 8.76058 -3.27554 5.68111 0.33077 -2.33149 -44.44190 -18.35280 -9.37292 -21.82320 -12.67330 -11.73960 26.95560 16.95060 21.06050 -5.96092 -0.47816 5.75332 7.83765 0.42859 
42.45740 96.94000 47.64210 -3.17711 8.84401 -133.82500 0.66115 8.01769 -1.01296 0.25110 15.99150 -2.01305 7.92777 -3.85243 14.60070 -0.00000 -0.00000 0.00000 -72.40310 -38.36930 -79.93840 -17.81760 29.78030 -80.99920 5.55594 9.67997 -0.87718 11.95430 0.87547 3.14805 66.04700 -33.25830 83.96660 17.79230 34.33500 87.46170 -5.55712 9.68432 0.87760 6.73598 -15.60660 7.41029 1.29595 36.87600 14.76070 -4.73145 7.15099 0.55138 -1.46079 -40.62180 -17.07160 -8.46213 -22.48050 -12.01020 -14.76940 33.77020 19.80430 20.79800 -8.67618 0.00977 6.96492 9.18125 -0.09974 
43.04790 98.16900 50.13880 -3.11068 7.90673 -140.40401 -0.07061 7.70464 0.10974 -0.59826 15.39190 0.28546 6.22040 -1.83445 16.40400 -0.00000 -0.00000 0.00000 -74.90220 -39.49800 -79.81760 -17.92000 29.79040 -81.01400 5.55594 9.67997 -0.87718 11.88760 0.88727 3.24729 71.01980 -34.63300 84.80650 20.94750 39.45890 87.35250 -5.55712 9.68432 0.87760 5.98747 -14.40930 7.51416 -0.44398 32.31050 18.00420 -7.46202 7.82748 0.94368 -0.43139 -34.93570 -15.31730 -8.12572 -21.95050 -9.33254 -16.82260 39.76430 21.59800 20.74260 -9.30565 0.12156 6.65746 8.58552 -0.30444 
43.73610 99.23940 52.49020 -2.90663 6.85626 -146.06300 -0.49314 7.30815 1.00148 -1.11816 14.59940 2.09456 4.77968 -0.15754 18.04040 -0.00000 -0.00000 0.00000 -77.25590 -40.74570 -80.32150 -17.92210 29.78390 -81.00570 5.55594 9.67997 -0.87718 11.60250 0.89078 3.35910 73.85210 -35.09390 84.72310 23.87630 42.86340 86.95190 -5.55712 9.68432 0.87760 5.56479 -14.02480 7.38985 -0.88314 28.25180 18.43000 -11.34390 8.94837 1.57318 0.31511 -29.35030 -13.99870 -8.53662 -20.58120 -6.01447 -17.25720 44.91410 21.81550 20.47260 -8.53601 -0.01788 5.45612 7.00092 -0.13713 
44.52730 100.12700 54.71440 -2.47232 5.56621 -150.34801 -0.49961 6.79190 1.48181 -1.30609 13.57410 3.07002 3.80828 1.00063 19.56920 -0.00000 -0.00000 0.00000 -79.48300 -42.10010 -81.56810 -17.98220 29.93930 -81.09370 5.55594 9.67997 -0.87718 11.22890 0.88668 3.45066 74.42900 -34.85980 83.72280 25.83300 44.31270 86.87420 -5.55712 9.68432 0.87760 5.55069 -14.57480 6.95977 -0.44922 24.96580 15.97080 -15.77700 11.04930 2.49709 0.73738 -25.36340 -13.20410 -9.71695 -18.57200 -3.32997 -16.15150 48.87700 20.40360 19.82110 -7.06189 -0.27299 3.87068 5.16380 0.43690 
45.38450 100.76300 56.84220 -1.87215 4.02574 -153.20100 -0.13875 6.16465 1.53847 -1.27776 12.37460 3.19332 3.28263 1.74342 20.94210 -0.00000 -0.00000 0.00000 -81.79480 -43.53130 -83.72800 -18.22390 30.35650 -81.28560 5.55594 9.67997 -0.87718 11.00830 0.88246 3.49385 74.33010 -34.61650 82.64770 26.97360 45.02800 87.08320 -5.55712 9.68432 0.87760 5.88246 -16.13960 6.38047 0.37940 23.14790 10.74060 -20.40240 13.53710 3.69497 0.93937 -23.19520 -12.95160 -11.48390 -16.02800 -1.90588 -14.05570 51.39040 17.76990 18.81450 -5.29434 -0.55011 2.06011 3.26079 1.41763 
